<svg xmlns="http://www.w3.org/2000/svg" width="24" height="24" viewBox="0 0 24 24" fill="none">
<path fill-rule="evenodd" clip-rule="evenodd" d="M21.9962 5.00109C21.9962 5.55182 21.5587 5.99828 21.0191 5.99828H9.98832C9.44869 5.99828 9.01123 5.55182 9.01123 5.00109C9.01123 4.45036 9.44869 4.00391 9.98832 4.00391L21.0191 4.00391C21.5587 4.00391 21.9962 4.45036 21.9962 5.00109Z" fill="white"/>
<path fill-rule="evenodd" clip-rule="evenodd" d="M6 4.99719C6 5.54792 5.55228 5.99437 5 5.99437L3 5.99437C2.44772 5.99437 2 5.54791 2 4.99718C2 4.44645 2.44771 4 3 4L5 4C5.55228 4 6 4.44646 6 4.99719Z" fill="white"/>
<path fill-rule="evenodd" clip-rule="evenodd" d="M1.99994 18.9989C1.99994 18.4482 2.4374 18.0017 2.97703 18.0017L14.0078 18.0017C14.5474 18.0017 14.9849 18.4482 14.9849 18.9989C14.9849 19.5496 14.5474 19.9961 14.0078 19.9961L2.97703 19.9961C2.4374 19.9961 1.99994 19.5496 1.99994 18.9989Z" fill="white"/>
<path fill-rule="evenodd" clip-rule="evenodd" d="M17.9961 19.0028C17.9961 18.4521 18.4438 18.0056 18.9961 18.0056L20.9961 18.0056C21.5484 18.0056 21.9961 18.4521 21.9961 19.0028C21.9961 19.5535 21.5484 20 20.9961 20L18.9961 20C18.4438 20 17.9961 19.5535 17.9961 19.0028Z" fill="white"/>
<path fill-rule="evenodd" clip-rule="evenodd" d="M2 12C2 11.4477 2.43779 11 2.97783 11L21.0222 11C21.5622 11 22 11.4477 22 12C22 12.5523 21.5622 13 21.0222 13L2.97783 13C2.43779 13 2 12.5523 2 12Z" fill="white"/>
</svg>
