<svg viewBox="0 0 16 16" version="1.1" xmlns="http://www.w3.org/2000/svg" xmlns:xlink="http://www.w3.org/1999/xlink"> <path d="M6.30756815,2.22628313 C4.05613736,2.22628313 2.22620053,4.05628786 2.22620053,6.30780219 C2.22620053,8.55931653 4.05613736,10.3893213 6.30756815,10.3893213 C8.55899895,10.3893213 10.3889358,8.55931653 10.3889358,6.30780219 C10.3889358,4.05628786 8.55899895,2.22628313 6.30756815,2.22628313 M11.4840029,9.90911111 L16,14.4252757 L14.4253342,16 L9.90944278,11.4839411 C8.88766285,12.1970496 7.6457058,12.6156044 6.30756815,12.6156044 C2.83024293,12.6156044 0,9.78674063 0,6.30780219 C0,2.83034795 2.83024293,0 6.30756815,0 C9.78637751,0 12.6151363,2.83034795 12.6151363,6.30780219 C12.6151363,7.64568421 12.196788,8.88742595 11.4840029,9.90911111 Z"></path> </svg>
