<svg width="20" height="20" viewBox="0 0 20 20" fill="none" xmlns="http://www.w3.org/2000/svg">
<path fill-rule="evenodd" clip-rule="evenodd" d="M9.99991 8.07424C11.079 8.07424 11.9537 7.1995 11.9537 6.12045C11.9537 5.04141 11.079 4.16667 9.99991 4.16667C8.92086 4.16667 8.04612 5.04141 8.04612 6.12045C8.04612 7.1995 8.92086 8.07424 9.99991 8.07424ZM9.99991 9.74091C11.9994 9.74091 13.6204 8.11998 13.6204 6.12045C13.6204 4.12093 11.9994 2.5 9.99991 2.5C8.00039 2.5 6.37946 4.12093 6.37946 6.12045C6.37946 8.11998 8.00039 9.74091 9.99991 9.74091Z" fill="white"/>
<path fill-rule="evenodd" clip-rule="evenodd" d="M9.99999 13.9089C7.50481 13.9089 5.3076 15.1863 4.0273 17.1268C3.77384 17.511 3.25695 17.617 2.87279 17.3635C2.48863 17.11 2.38268 16.5931 2.63614 16.209C4.21177 13.8209 6.92132 12.2422 9.99999 12.2422C13.0787 12.2422 15.7882 13.8209 17.3639 16.209C17.6173 16.5931 17.5114 17.11 17.1272 17.3635C16.743 17.617 16.2262 17.511 15.9727 17.1268C14.6924 15.1863 12.4952 13.9089 9.99999 13.9089Z" fill="white"/>
</svg>
